<svg width="1043" height="243" viewBox="0 0 1043 243" fill="none" xmlns="http://www.w3.org/2000/svg">
<path fill-rule="evenodd" clip-rule="evenodd" d="M476.498 86.9825C439.591 85.2453 403.739 82.84 371.482 79.7239C345.985 74.3541 323.14 68.7704 303.995 63.0393C276.79 52.7665 257.53 42.7389 249.295 33.3586C248.437 32.2643 247.605 31.157 246.8 30.0365C234.327 12.0534 213.535 0.277344 189.992 0.277344C155.129 0.277344 126.297 26.1007 121.581 59.6633C118.432 78.8004 108.72 85.9503 87.9759 83.0274C83.9788 82.3676 79.8749 82.0244 75.6908 82.0244C34.3388 82.0244 0.816406 115.547 0.816406 156.899C0.816406 198.251 34.3388 242.625 75.6908 242.625C78.7858 242.625 81.837 242.376 84.8335 241.899C154.365 241.882 421.578 241.773 651.083 241.679C828.714 241.607 983.755 241.543 1007.07 241.539C1008.61 241.778 1010.19 241.901 1011.8 241.901C1028.78 241.901 1042.55 228.136 1042.55 211.156C1042.55 197.674 1033.87 186.22 1021.8 182.071C996.315 172.552 973.629 156.166 992.58 103.567C995.415 96.3321 996.972 88.456 996.972 80.2164C996.972 44.8574 968.308 16.1934 932.949 16.1934C913.327 16.1934 895.767 25.0205 884.023 38.9203C878.87 44.9486 867.464 50.9941 851.071 56.9264C845.513 53.5706 838.997 51.6396 832.03 51.6396C822.69 51.6396 814.16 55.1107 807.66 60.8334C804.184 63.831 800.859 65.4866 797.455 65.5772C790.733 61.8768 783.945 57.0226 777.011 51.1883C768.356 43.802 757.128 39.3428 744.858 39.3428C729.668 39.3428 716.074 46.1778 706.983 56.9401C697.402 68.1033 661.375 79.8832 611.48 90.434C608.271 90.4185 605.045 90.398 601.805 90.3725C593.645 87.6034 586.399 84.2871 580.3 80.4004C578.245 78.9754 576.163 77.4777 574.053 75.9063C563.643 67.9447 550.63 63.2148 536.512 63.2148C523.001 63.2148 510.503 67.5465 500.329 74.8969C493.392 79.7333 485.359 83.7542 476.498 86.9825ZM448.83 94.1268C449.866 93.9518 450.896 93.7689 451.921 93.578C449.973 93.6064 448.03 93.6369 446.091 93.6696C447.003 93.8222 447.915 93.9747 448.83 94.1268Z" fill="#6EDDB5"/>
</svg>
