<svg width="260" height="167" viewBox="0 0 260 167" fill="none" xmlns="http://www.w3.org/2000/svg">
<path d="M22.4961 141.476V74.531L88.5244 25.0098L122.226 50.2289L84.3976 78.887L88.7537 85.0772L128.875 54.3557L155.011 76.1359V141.476H157.762V163.715L19.5156 163.944V141.476H22.4961Z" fill="white" stroke="black" stroke-width="4"/>
<path d="M88.5234 86.4526L104.126 119.925V85.5355L133.07 63.9846L154.552 80.0332V74.7601L129.452 54.3555L88.5234 86.4526Z" fill="#86C1AC"/>
<path d="M257.951 36.7012H118.328L174.04 78.6567L168.308 84.8468L154.781 74.0714V89.6614H257.951V36.7012Z" fill="white" stroke="black" stroke-width="4"/>
<path d="M109.156 141.934V164.631" stroke="black" stroke-width="4"/>
<path d="M148.594 141.934V164.631" stroke="black" stroke-width="4"/>
<path d="M109.387 147.438H148.591M109.387 152.94H148.591M109.387 158.671H148.591" stroke="black" stroke-width="4"/>
<path d="M248.782 141.246V164.402H157.535V141.246H155.242V97.6855H246.031V141.246H248.782Z" fill="white" stroke="black" stroke-width="4"/>
<path d="M184.364 104.816H245.341V98.3742L177.478 88.7451L173.581 80.7208L168.537 85.9939L155.469 75.9062V140.937H157.972V163.944H178.449V123.912C194.466 125.2 189.066 111.718 184.364 104.816Z" fill="#86C1AC"/>
<path d="M157.992 141.477H168.768M168.768 141.477V146.521M168.768 141.477V127.951M232.045 164.174V146.521M232.045 141.477H248.552M232.045 141.477V146.521M232.045 141.477V127.951M168.768 164.174V146.521M168.768 146.521H232.045M232.045 127.951V109.609H168.768V127.951M232.045 127.951H168.768" stroke="black" stroke-width="4"/>
<path d="M103.426 74.0723V141.476" stroke="black" stroke-width="4"/>
<path d="M111.91 141.247V85.3064C117.183 80.1097 131.581 72.8344 146.988 85.3064V141.247" stroke="black" stroke-width="5"/>
<path d="M119.435 111.161C125.424 102.045 139.841 103.564 146.301 105.464V86.3192C131.502 74.1034 117.82 81.2293 112.828 86.3192V141.017H118.774L119.435 111.161Z" fill="#86C1AC"/>
<line x1="155.68" y1="46.5605" x2="155.68" y2="64.4432" stroke="#86C1AC" stroke-width="5"/>
<line x1="141.461" y1="46.5605" x2="141.461" y2="58.0238" stroke="#86C1AC" stroke-width="5"/>
<line x1="170.809" y1="37.8477" x2="170.809" y2="85.5348" stroke="#86C1AC" stroke-width="5"/>
<path d="M3.46875 78.8859L88.5261 14.0039L128.877 45.1839L173.813 78.8859L168.769 84.8468L128.877 54.1253L88.5261 84.8468L84.3993 78.8859L122.224 50.2248L88.5261 24.3208L8.97111 84.8468L3.46875 78.8859Z" fill="white"/>
<path d="M128.877 45.1839L88.5261 14.0039L3.46875 78.8859L8.97111 84.8468L88.5261 24.3208L122.228 50.2278L128.877 45.1839ZM128.877 45.1839L84.3993 78.8859L88.5261 84.8468L128.877 54.1253L168.769 84.8468L173.813 78.8859L128.877 45.1839Z" stroke="black" stroke-width="4"/>
<path d="M92.4228 33.7211L23.4141 85.7642V74.5303L88.7546 25.2383L121.539 49.9989L117.413 52.9793L92.4228 33.7211Z" fill="#86C1AC"/>
<ellipse cx="88.7556" cy="50.687" rx="13.0681" ry="12.3803" fill="black"/>
<circle cx="91.0465" cy="55.5016" r="11.234" fill="#86C1AC"/>
<path d="M100.282 50.9162C100.282 56.677 95.3257 61.5258 88.9849 61.5258C82.6441 61.5258 77.6875 56.677 77.6875 50.9162C77.6875 45.1555 82.6441 40.3066 88.9849 40.3066C95.3257 40.3066 100.282 45.1555 100.282 50.9162Z" stroke="black" stroke-width="4"/>
<rect x="43.1289" y="84.6172" width="39.4336" height="49.0627" fill="black" stroke="black" stroke-width="4"/>
<rect x="47.2578" y="88.2871" width="35.3068" height="44.0189" fill="#86C1AC" stroke="black" stroke-width="4"/>
<line x1="54.8008" y1="88.2871" x2="54.8008" y2="132.306" stroke="black" stroke-width="5"/>
<line x1="74.0586" y1="88.2871" x2="74.0586" y2="132.306" stroke="black" stroke-width="5"/>
<line x1="20.6641" y1="140.893" x2="155.472" y2="140.893" stroke="black" stroke-width="3"/>
<rect x="52.3008" y="146.52" width="22.0094" height="13.7559" fill="black" stroke="black" stroke-width="3"/>
<rect x="56.4258" y="152.021" width="16.0486" height="5.96089" fill="#86C1AC" stroke="black" stroke-width="3"/>
<path d="M100.906 141.705V164.632" stroke="black" stroke-width="4"/>
<rect x="123.371" y="97.457" width="11.4633" height="35.7653" fill="black" stroke="black" stroke-width="3"/>
<rect x="124.289" y="105.254" width="5.96089" height="27.5118" fill="#86C1AC" stroke="black" stroke-width="3"/>
<path d="M118.328 141.705V89.6621H139.879V141.705" stroke="black" stroke-width="5"/>
<rect x="155.469" y="89.6621" width="101.794" height="7.79501" fill="#86C1AC" stroke="black" stroke-width="3"/>
<line x1="244.172" y1="37.8477" x2="244.172" y2="85.5348" stroke="#86C1AC" stroke-width="5"/>
<line x1="229.5" y1="37.8477" x2="229.5" y2="85.5348" stroke="#86C1AC" stroke-width="5"/>
<line x1="214.828" y1="37.8477" x2="214.828" y2="85.5348" stroke="#86C1AC" stroke-width="5"/>
<line x1="200.613" y1="37.8477" x2="200.613" y2="85.5348" stroke="#86C1AC" stroke-width="5"/>
<line x1="185.484" y1="37.8477" x2="185.484" y2="85.5348" stroke="#86C1AC" stroke-width="5"/>
<rect x="138.961" y="29.1367" width="18.7997" height="17.4241" fill="white" stroke="black" stroke-width="4"/>
<rect x="141.715" y="3" width="13.2974" height="25.6777" fill="white" stroke="black" stroke-width="5"/>
<rect x="139.883" y="9.41797" width="16.9656" height="7.33648" fill="white" stroke="black" stroke-width="4"/>
</svg>
