<svg width="190" height="231" viewBox="0 0 190 231" fill="none" xmlns="http://www.w3.org/2000/svg">
<rect x="26.0898" y="2" width="76.116" height="143.52" fill="white" stroke="black" stroke-width="4"/>
<line x1="28.1484" y1="14.5664" x2="76.219" y2="14.5664" stroke="#86C1AC" stroke-width="5"/>
<line x1="28.1484" y1="27.0273" x2="76.219" y2="27.0273" stroke="#86C1AC" stroke-width="5"/>
<line x1="28.1484" y1="40.3809" x2="76.219" y2="40.3809" stroke="#86C1AC" stroke-width="5"/>
<line x1="28.1484" y1="53.7344" x2="76.219" y2="53.7344" stroke="#86C1AC" stroke-width="5"/>
<line x1="28.1484" y1="66.1973" x2="76.219" y2="66.1973" stroke="#86C1AC" stroke-width="5"/>
<line x1="28.1484" y1="79.5508" x2="76.219" y2="79.5508" stroke="#86C1AC" stroke-width="5"/>
<line x1="28.1484" y1="92.9023" x2="76.219" y2="92.9023" stroke="#86C1AC" stroke-width="5"/>
<line x1="28.1484" y1="106.256" x2="76.219" y2="106.256" stroke="#86C1AC" stroke-width="5"/>
<line x1="28.1484" y1="118.719" x2="76.219" y2="118.719" stroke="#86C1AC" stroke-width="5"/>
<line x1="28.1484" y1="131.182" x2="76.219" y2="131.182" stroke="#86C1AC" stroke-width="5"/>
<rect x="26.5469" y="175.324" width="139.393" height="52.731" fill="white"/>
<rect x="27.9219" y="176.242" width="136.642" height="8.71207" fill="#86C1AC"/>
<path d="M187.263 15.9844V228.284H165.941V175.553H2.93359V145.748H80.8837V15.9844H187.263Z" fill="white" stroke="black" stroke-width="4"/>
<rect x="101.289" y="40.9746" width="66.4869" height="129.764" fill="black" stroke="black" stroke-width="4"/>
<rect x="105.418" y="46.4766" width="59.1504" height="122.428" fill="#86C1AC" stroke="black" stroke-width="4"/>
<path opacity="0.6" d="M163.652 111.129L106.336 145.519V161.567L163.652 127.796V111.129Z" fill="white"/>
<path opacity="0.6" d="M106.336 165.977L163.652 132.682V142.067L120.665 167.988H106.336V165.977Z" fill="white"/>
<line x1="116.129" y1="46.4785" x2="116.129" y2="170.74" stroke="black" stroke-width="4"/>
<line x1="154.188" y1="46.4785" x2="154.188" y2="170.74" stroke="black" stroke-width="4"/>
<line x1="105.418" y1="105.42" x2="165.944" y2="105.42" stroke="black" stroke-width="5"/>
<line x1="152.188" y1="144.395" x2="165.943" y2="144.395" stroke="black" stroke-width="5"/>
<line x1="105.418" y1="92.582" x2="152.188" y2="92.582" stroke="black" stroke-width="5"/>
<line x1="28.0898" y1="176.223" x2="28.5483" y2="228.036" stroke="black" stroke-width="4"/>
<line x1="103.328" y1="176.218" x2="103.787" y2="228.032" stroke="black" stroke-width="5"/>
<line x1="101.289" y1="187.496" x2="165.942" y2="187.496" stroke="black" stroke-width="5"/>
<line x1="101.289" y1="200.795" x2="165.942" y2="200.795" stroke="black" stroke-width="5"/>
<line x1="101.289" y1="214.092" x2="165.942" y2="214.092" stroke="black" stroke-width="5"/>
<rect x="9.46949" y="177.044" width="3.43898" height="50.209" fill="white" stroke="black" stroke-width="3.43898"/>
<rect x="33.8867" y="175.324" width="20.1753" height="52.731" fill="black" stroke="black" stroke-width="4"/>
<path d="M59.793 188.852H64.149V202.378M76.3 188.852H80.8853V192.749L78.822 197.564L77.9049 202.378M69.1928 188.852H73.3196V201.461H69.1928V188.852Z" stroke="black" stroke-width="5" stroke-linejoin="bevel"/>
<rect x="33.8867" y="41.8906" width="20.1753" height="103.628" fill="black" stroke="black" stroke-width="4"/>
<rect x="37.0938" y="183.578" width="16.9656" height="44.4774" fill="#86C1AC" stroke="black" stroke-width="4"/>
<rect x="37.0938" y="46.4785" width="16.9656" height="99.0425" fill="#86C1AC" stroke="black" stroke-width="4"/>
<line x1="37.0938" y1="188.039" x2="54.0594" y2="188.039" stroke="black" stroke-width="3"/>
<line x1="37.0938" y1="92.582" x2="54.0594" y2="92.582" stroke="black" stroke-width="5"/>
</svg>
