<svg width="168" height="40" viewBox="0 0 168 40" fill="none" xmlns="http://www.w3.org/2000/svg">
<path d="M56.1094 31.667V0H62.7761V15.5557L69.165 8.33341H78.054L68.8873 18.0557L79.9985 31.667H71.6651L64.4428 22.5002L62.7761 24.4447V31.667H56.1094Z" fill="black"/>
<path fill-rule="evenodd" clip-rule="evenodd" d="M0 8.33309V40H6.94451V29.7222C7.96304 30.5555 10.3334 31.9444 12.7779 31.9444C15.2224 31.9444 16.7527 31.6176 18.6113 30.5555C20.5557 29.4444 24.262 26.4004 24.4447 20.5554C24.6658 13.4792 20.1619 10.4778 19.4548 10.0066L19.4446 9.99977C16.7779 8.22198 13.3335 7.96271 11.9446 8.05529C10.8334 8.14789 8.27785 8.4442 6.94451 9.99977V8.33309H0ZM12.2237 14.166C14.446 14.166 17.5016 15.5549 17.5016 19.9994C17.5016 24.4439 13.983 25.7402 12.2237 25.8328C10.3719 25.8328 6.66812 24.6661 6.66812 19.9994C6.66812 15.3327 10.2793 14.166 12.2237 14.166Z" fill="black"/>
<path fill-rule="evenodd" clip-rule="evenodd" d="M44.445 8.33442H51.6673V31.668H44.445V29.4457C43.8895 30.3717 41.8895 32.2235 38.3339 32.2235C33.8894 32.2235 27.2227 28.6124 27.2227 20.5568C27.2227 12.5011 32.7783 8.05664 37.7783 8.05664C42.2228 8.05664 43.6117 9.44554 44.445 10.5567V8.33442ZM39.4423 26.113C42.5106 26.113 44.9979 23.3769 44.9979 20.0018C44.9979 16.6267 42.5106 13.8906 39.4423 13.8906C36.374 13.8906 33.8867 16.6267 33.8867 20.0018C33.8867 23.3769 36.374 26.113 39.4423 26.113Z" fill="black"/>
<path d="M92.2236 2.77734H85.0013V8.33295H81.668V14.4441H85.0013V25.8331C85.0013 28.9442 86.8532 30.648 87.7791 31.1109C88.2421 31.4813 89.8347 32.2221 92.5014 32.2221C95.1681 32.2221 96.7607 31.4813 97.2237 31.1109V25.5553H93.3347C92.4458 25.5553 92.2236 24.4442 92.2236 23.8886V14.4441H97.2237V8.33295H92.2236V2.77734Z" fill="white"/>
<path d="M107.781 8.33398H100.559V24.723C100.559 27.5008 104.17 31.9453 109.17 31.9453C113.336 31.9453 115.559 29.4453 116.392 27.7786V31.6675H123.337V8.33398H116.392C116.392 8.33398 116.114 20.5563 116.114 21.6674C116.114 22.7786 114.17 25.5564 111.392 25.5564C108.892 25.5564 107.781 23.6119 107.781 22.5008V8.33398Z" fill="white"/>
<path d="M127.781 31.666V8.33247H135.004V11.6658C135.744 10.4621 138.164 8.05469 141.948 8.05469C145.559 8.05469 148.893 10.5547 150.004 12.777C151.115 11.1103 153.615 8.05469 158.615 8.05469C164.448 8.05469 167.782 13.6103 167.782 16.6659V31.666H160.559V18.8881C160.559 17.4992 160.004 14.1659 156.393 14.1659C152.781 14.1659 151.115 16.6659 151.115 18.8881V31.666H144.448V18.8881C144.541 17.4066 143.781 14.4436 140.004 14.4436C136.226 14.4436 135.096 17.4066 135.004 18.8881V31.666H127.781Z" fill="white"/>
</svg>
