<svg width="218" height="52" viewBox="0 0 218 52" fill="none" xmlns="http://www.w3.org/2000/svg">
<path d="M72.9062 41.1457V0H81.5685V20.2119L89.8698 10.8278H101.419L89.5089 23.4603L103.946 41.1457H93.1182L83.7341 29.2351L81.5685 31.7616V41.1457H72.9062Z" fill="#10D38D"/>
<path fill-rule="evenodd" clip-rule="evenodd" d="M0 10.8273V51.973H9.02318V38.6187C10.3466 39.7015 13.4265 41.5062 16.6026 41.5062C19.7788 41.5062 21.7672 41.0815 24.1821 39.7015C26.7086 38.2578 31.5243 34.3027 31.7616 26.7081C32.0489 17.5138 26.1969 13.614 25.2781 13.0017L25.2649 12.9929C21.8 10.683 17.3245 10.3461 15.5199 10.4664C14.0762 10.5867 10.7556 10.9717 9.02318 12.9929V10.8273H0ZM15.8826 18.4062C18.77 18.4062 22.7402 20.2109 22.7402 25.9857C22.7402 31.7605 18.1685 33.4449 15.8826 33.5652C13.4764 33.5652 8.66406 32.0493 8.66406 25.9857C8.66406 19.9221 13.3561 18.4062 15.8826 18.4062Z" fill="#10D38D"/>
<path fill-rule="evenodd" clip-rule="evenodd" d="M57.7486 10.8297H67.1327V41.1476H57.7486V38.2601C57.0267 39.4632 54.428 41.8694 49.8082 41.8694C44.0333 41.8694 35.3711 37.1774 35.3711 26.7105C35.3711 16.2436 42.5896 10.4688 49.0863 10.4688C54.8612 10.4688 56.6658 12.2734 57.7486 13.7171V10.8297ZM51.2498 33.9277C55.2365 33.9277 58.4683 30.3726 58.4683 25.9873C58.4683 21.6019 55.2365 18.0469 51.2498 18.0469C47.2631 18.0469 44.0312 21.6019 44.0312 25.9873C44.0312 30.3726 47.2631 33.9277 51.2498 33.9277Z" fill="#10D38D"/>
<path d="M119.829 3.60938H110.444V10.8279H106.113V18.7683H110.444V33.5663C110.444 37.6087 112.851 39.8224 114.054 40.4239C114.655 40.9052 116.725 41.8677 120.189 41.8677C123.654 41.8677 125.724 40.9052 126.325 40.4239V33.2054H121.272C120.117 33.2054 119.829 31.7617 119.829 31.0398V18.7683H126.325V10.8279H119.829V3.60938Z" fill="white"/>
<path d="M140.04 10.8281H130.656V32.1228C130.656 35.7321 135.348 41.5069 141.845 41.5069C147.259 41.5069 150.146 38.2586 151.229 36.093V41.146H160.252V10.8281H151.229C151.229 10.8281 150.868 26.7089 150.868 28.1526C150.868 29.5963 148.342 33.2056 144.732 33.2056C141.484 33.2056 140.04 30.6791 140.04 29.2354V10.8281Z" fill="white"/>
<path d="M166.027 41.1476V10.8297H175.411V15.1608C176.374 13.5968 179.518 10.4688 184.435 10.4688C189.127 10.4688 193.458 13.7171 194.902 16.6045C196.345 14.4389 199.594 10.4688 206.09 10.4688C213.67 10.4688 218.001 17.6873 218.001 21.6575V41.1476H208.617V24.5449C208.617 22.7403 207.895 18.4091 203.203 18.4091C198.511 18.4091 196.345 21.6575 196.345 24.5449V41.1476H187.683V24.5449C187.803 22.62 186.817 18.7701 181.908 18.7701C177 18.7701 175.532 22.62 175.411 24.5449V41.1476H166.027Z" fill="white"/>
</svg>
