<svg width="107" height="64" viewBox="0 0 107 64" fill="none" xmlns="http://www.w3.org/2000/svg">
<path d="M106.379 0H0V41.7262H86.6622L106.379 63.0479V0Z" fill="black"/>
<path d="M23.5227 29.098L19.5227 22.148H17.3477V29.098H14.4977V11.723H20.4977C21.831 11.723 22.956 11.9563 23.8727 12.423C24.806 12.8896 25.4977 13.5146 25.9477 14.298C26.4144 15.0813 26.6477 15.9563 26.6477 16.923C26.6477 18.0563 26.3144 19.0896 25.6477 20.023C24.9977 20.9396 23.9894 21.5646 22.6227 21.898L26.9227 29.098H23.5227ZM17.3477 19.873H20.4977C21.5644 19.873 22.3644 19.6063 22.8977 19.073C23.4477 18.5396 23.7227 17.823 23.7227 16.923C23.7227 16.023 23.456 15.323 22.9227 14.823C22.3894 14.3063 21.581 14.048 20.4977 14.048H17.3477V19.873Z" fill="white"/>
<path d="M33.1436 14.023V19.123H39.1436V21.448H33.1436V26.773H39.8936V29.098H30.2936V11.698H39.8936V14.023H33.1436Z" fill="white"/>
<path d="M57.679 29.098H54.829L46.254 16.123V29.098H43.404V11.698H46.254L54.829 24.648V11.698H57.679V29.098Z" fill="white"/>
<path d="M72.6465 11.723V14.048H68.0215V29.098H65.1715V14.048H60.5215V11.723H72.6465Z" fill="white"/>
</svg>
