<svg width="107" height="64" viewBox="0 0 107 64" fill="none" xmlns="http://www.w3.org/2000/svg">
<path d="M0.476562 0.287109H106.855V42.0133H20.1934L0.476562 63.335V0.287109Z" fill="black"/>
<path d="M40.471 29.3407L36.471 22.3907H34.296V29.3407H31.446V11.9657H37.446C38.7794 11.9657 39.9044 12.1991 40.821 12.6657C41.7544 13.1324 42.4461 13.7574 42.8961 14.5407C43.3627 15.3241 43.596 16.1991 43.596 17.1657C43.596 18.2991 43.2627 19.3324 42.596 20.2657C41.946 21.1824 40.9377 21.8074 39.571 22.1407L43.871 29.3407H40.471ZM34.296 20.1157H37.446C38.5127 20.1157 39.3127 19.8491 39.846 19.3157C40.396 18.7824 40.671 18.0657 40.671 17.1657C40.671 16.2657 40.4044 15.5657 39.871 15.0657C39.3377 14.5491 38.5294 14.2907 37.446 14.2907H34.296V20.1157Z" fill="white"/>
<path d="M50.0919 14.2657V19.3657H56.0919V21.6907H50.0919V27.0157H56.8419V29.3407H47.2419V11.9407H56.8419V14.2657H50.0919Z" fill="white"/>
<path d="M74.6273 29.3407H71.7773L63.2023 16.3657V29.3407H60.3523V11.9407H63.2023L71.7773 24.8907V11.9407H74.6273V29.3407Z" fill="white"/>
<path d="M89.5948 11.9657V14.2907H84.9698V29.3407H82.1199V14.2907H77.4698V11.9657H89.5948Z" fill="white"/>
</svg>
